PathFileType	4	(X/Y/Z)	C:\Users\italobelli\Desktop\GitHub\PTbot_officialCBL\Personal_Results\FLX01_noisy2.trc
DataRate	CameraRate	NumFrames	NumMarkers	Units	OrigDataRate	OrigDataStartFrame	OrigNumFrames
106.533333	106.533333	51	9	m	106.533333	201	800
Frame#	Time		gu		centelbow		EpL		centpxt8		centijc7		ij		ts		aa		ai
			X1	Y1	Z1	X2	Y2	Z2	X3	Y3	Z3	X4	Y4	Z4	X5	Y5	Z5	X6	Y6	Z6	X7	Y7	Z7	X8	Y8	Z8	X9	Y9	Z9

201	1.8773	-0.077066	0.038556	0.13953	0.15026	0.032801	0.23138	0.14007	0.060728	0.24396	-0.046816	-0.15316	-0.008669	-0.046816	0.031938	-0.008669	0	0	0	-0.15566	-0.0041936	0.062366	-0.10097	0.054969	0.15049	-0.13876	-0.098856	0.12286
202	1.8867	-0.077435	0.039064	0.13906	0.14952	0.035905	0.23135	0.13905	0.063833	0.24373	-0.046816	-0.15316	-0.008669	-0.046816	0.031938	-0.008669	0	0	0	-0.15577	-0.0042876	0.062322	-0.10116	0.055485	0.15005	-0.1386	-0.098593	0.12329
203	1.8961	-0.077797	0.039555	0.13859	0.14875	0.038994	0.23132	0.138	0.06692	0.2435	-0.046816	-0.15316	-0.008669	-0.046816	0.031938	-0.008669	0	0	0	-0.15589	-0.0043854	0.062277	-0.10136	0.055991	0.1496	-0.13843	-0.098332	0.12371
204	1.9055	-0.078153	0.040031	0.13813	0.14795	0.042067	0.23129	0.13693	0.069987	0.24326	-0.046816	-0.15316	-0.008669	-0.046816	0.031938	-0.008669	0	0	0	-0.15599	-0.0044872	0.062233	-0.10156	0.056488	0.14917	-0.13826	-0.098073	0.12412
205	1.9149	-0.078503	0.040489	0.13768	0.14712	0.045123	0.23124	0.13584	0.073035	0.24302	-0.046816	-0.15316	-0.008669	-0.046816	0.031938	-0.008669	0	0	0	-0.1561	-0.0045933	0.062187	-0.10176	0.056974	0.14874	-0.13809	-0.097817	0.12454
206	1.9243	-0.078844	0.040929	0.13722	0.14626	0.048162	0.2312	0.13473	0.076061	0.24277	-0.046816	-0.15316	-0.008669	-0.046816	0.031938	-0.008669	0	0	0	-0.1562	-0.004704	0.062142	-0.10196	0.05745	0.14831	-0.13792	-0.097564	0.12494
207	1.9337	-0.079177	0.041351	0.13678	0.14537	0.051182	0.23114	0.1336	0.079066	0.24251	-0.046816	-0.15316	-0.008669	-0.046816	0.031938	-0.008669	0	0	0	-0.15629	-0.0048196	0.062096	-0.10216	0.057914	0.14789	-0.13775	-0.097314	0.12535
208	1.9431	-0.079501	0.041753	0.13634	0.14446	0.054184	0.23109	0.13245	0.082048	0.24225	-0.046816	-0.15316	-0.008669	-0.046816	0.031938	-0.008669	0	0	0	-0.15638	-0.0049404	0.06205	-0.10236	0.058365	0.14748	-0.13758	-0.097068	0.12575
209	1.9524	-0.079814	0.042136	0.1359	0.14352	0.057165	0.23102	0.13129	0.085006	0.24199	-0.046816	-0.15316	-0.008669	-0.046816	0.031938	-0.008669	0	0	0	-0.15647	-0.0050667	0.062004	-0.10256	0.058804	0.14707	-0.13741	-0.096826	0.12614
210	1.9618	-0.080118	0.042499	0.13547	0.14255	0.060126	0.23095	0.13011	0.08794	0.24171	-0.046816	-0.15316	-0.008669	-0.046816	0.031938	-0.008669	0	0	0	-0.15654	-0.0051987	0.061957	-0.10276	0.059229	0.14667	-0.13724	-0.096588	0.12653
211	1.9712	-0.080409	0.04284	0.13505	0.14156	0.063065	0.23088	0.12891	0.090849	0.24144	-0.046816	-0.15316	-0.008669	-0.046816	0.031938	-0.008669	0	0	0	-0.15662	-0.0053368	0.061911	-0.10296	0.059641	0.14628	-0.13707	-0.096355	0.12692
212	1.9806	-0.080689	0.04316	0.13464	0.14054	0.065981	0.2308	0.1277	0.093732	0.24116	-0.046816	-0.15316	-0.008669	-0.046816	0.031938	-0.008669	0	0	0	-0.15669	-0.0054812	0.061864	-0.10316	0.060038	0.1459	-0.1369	-0.096128	0.1273
213	1.99	-0.080956	0.043457	0.13423	0.1395	0.068874	0.23071	0.12647	0.096588	0.24087	-0.046816	-0.15316	-0.008669	-0.046816	0.031938	-0.008669	0	0	0	-0.15675	-0.0056323	0.061818	-0.10335	0.060419	0.14553	-0.13672	-0.095906	0.12768
214	1.9994	-0.08121	0.043732	0.13384	0.13843	0.071744	0.23062	0.12523	0.099416	0.24058	-0.046816	-0.15316	-0.008669	-0.046816	0.031938	-0.008669	0	0	0	-0.15681	-0.0057902	0.061771	-0.10355	0.060785	0.14517	-0.13655	-0.09569	0.12806
215	2.0088	-0.081455	0.04399	0.13344	0.13734	0.074602	0.23051	0.12398	0.10223	0.24027	-0.046816	-0.15316	-0.008669	-0.046816	0.031938	-0.008669	0	0	0	-0.15686	-0.0059531	0.061724	-0.10374	0.061141	0.14482	-0.13638	-0.095478	0.12843
216	2.0181	-0.081701	0.044242	0.13305	0.13623	0.077468	0.23039	0.12269	0.10505	0.23995	-0.046816	-0.15316	-0.008669	-0.046816	0.031938	-0.008669	0	0	0	-0.1569	-0.0061182	0.061677	-0.10394	0.061493	0.14447	-0.13621	-0.095266	0.1288
217	2.0275	-0.081947	0.044489	0.13266	0.13509	0.080339	0.23025	0.12137	0.10787	0.23959	-0.046816	-0.15316	-0.008669	-0.046816	0.031938	-0.008669	0	0	0	-0.15694	-0.0062854	0.061629	-0.10414	0.061843	0.14412	-0.13603	-0.095055	0.12917
218	2.0369	-0.082193	0.04473	0.13227	0.13393	0.083216	0.23009	0.12003	0.11069	0.23922	-0.046816	-0.15316	-0.008669	-0.046816	0.031938	-0.008669	0	0	0	-0.15697	-0.0064545	0.06158	-0.10435	0.06219	0.14377	-0.13586	-0.094844	0.12954
219	2.0463	-0.082439	0.044965	0.13188	0.13275	0.086096	0.22991	0.11866	0.11352	0.23882	-0.046816	-0.15316	-0.008669	-0.046816	0.031938	-0.008669	0	0	0	-0.157	-0.0066256	0.061531	-0.10455	0.062535	0.14341	-0.13568	-0.094634	0.1299
220	2.0557	-0.082685	0.045195	0.13149	0.13154	0.08898	0.22972	0.11726	0.11634	0.2384	-0.046816	-0.15316	-0.008669	-0.046816	0.031938	-0.008669	0	0	0	-0.15702	-0.0067985	0.061482	-0.10476	0.062876	0.14307	-0.13551	-0.094424	0.13027
221	2.0651	-0.08293	0.045419	0.13109	0.13032	0.091865	0.22951	0.11584	0.11916	0.23797	-0.046816	-0.15316	-0.008669	-0.046816	0.031938	-0.008669	0	0	0	-0.15704	-0.0069732	0.061432	-0.10498	0.063214	0.14272	-0.13533	-0.094214	0.13064
222	2.0745	-0.083176	0.045639	0.1307	0.12907	0.094752	0.22929	0.1144	0.12199	0.23751	-0.046816	-0.15316	-0.008669	-0.046816	0.031938	-0.008669	0	0	0	-0.15705	-0.0071495	0.061381	-0.10519	0.06355	0.14237	-0.13516	-0.094004	0.131
223	2.0839	-0.083421	0.045854	0.13031	0.12781	0.097638	0.22905	0.11293	0.1248	0.23703	-0.046816	-0.15316	-0.008669	-0.046816	0.031938	-0.008669	0	0	0	-0.15705	-0.0073275	0.06133	-0.10541	0.063882	0.14202	-0.13498	-0.093795	0.13137
224	2.0932	-0.083666	0.046063	0.12993	0.12652	0.10052	0.22879	0.11144	0.12762	0.23654	-0.046816	-0.15316	-0.008669	-0.046816	0.031938	-0.008669	0	0	0	-0.15705	-0.007507	0.061279	-0.10563	0.064212	0.14167	-0.13481	-0.093585	0.13173
225	2.1026	-0.08391	0.046268	0.12954	0.12522	0.10341	0.22852	0.10993	0.13043	0.23602	-0.046816	-0.15316	-0.008669	-0.046816	0.031938	-0.008669	0	0	0	-0.15705	-0.0076879	0.061228	-0.10585	0.064538	0.14132	-0.13463	-0.093376	0.13209
226	2.112	-0.084154	0.046469	0.12915	0.1239	0.10629	0.22824	0.1084	0.13323	0.23549	-0.046816	-0.15316	-0.008669	-0.046816	0.031938	-0.008669	0	0	0	-0.15704	-0.0078702	0.061176	-0.10608	0.064862	0.14098	-0.13445	-0.093167	0.13245
227	2.1214	-0.084397	0.046665	0.12876	0.12257	0.10916	0.22794	0.10685	0.13602	0.23494	-0.046816	-0.15316	-0.008669	-0.046816	0.031938	-0.008669	0	0	0	-0.15702	-0.0080539	0.061123	-0.10631	0.065182	0.14063	-0.13428	-0.092958	0.13281
228	2.1308	-0.08464	0.046857	0.12838	0.12122	0.11203	0.22764	0.10528	0.13881	0.23438	-0.046816	-0.15316	-0.008669	-0.046816	0.031938	-0.008669	0	0	0	-0.157	-0.0082387	0.061071	-0.10654	0.0655	0.14028	-0.1341	-0.092749	0.13317
229	2.1402	-0.084882	0.047045	0.12799	0.11985	0.1149	0.22731	0.10369	0.14159	0.2338	-0.046816	-0.15316	-0.008669	-0.046816	0.031938	-0.008669	0	0	0	-0.15698	-0.0084247	0.061018	-0.10677	0.065814	0.13994	-0.13392	-0.092539	0.13353
230	2.1496	-0.085124	0.047229	0.1276	0.11847	0.11775	0.22698	0.10208	0.14436	0.23321	-0.046816	-0.15316	-0.008669	-0.046816	0.031938	-0.008669	0	0	0	-0.15695	-0.0086117	0.060965	-0.10701	0.066125	0.13959	-0.13375	-0.09233	0.13388
231	2.1589	-0.085364	0.047409	0.12722	0.11707	0.1206	0.22664	0.10046	0.14711	0.2326	-0.046816	-0.15316	-0.008669	-0.046816	0.031938	-0.008669	0	0	0	-0.15692	-0.0087997	0.060912	-0.10725	0.066433	0.13925	-0.13357	-0.092121	0.13424
232	2.1683	-0.085604	0.047586	0.12684	0.11567	0.12344	0.22628	0.098831	0.14986	0.23198	-0.046816	-0.15316	-0.008669	-0.046816	0.031938	-0.008669	0	0	0	-0.15688	-0.0089887	0.060859	-0.10749	0.066738	0.1389	-0.13339	-0.091911	0.13459
233	2.1777	-0.085843	0.047758	0.12645	0.11425	0.12627	0.22591	0.097183	0.15259	0.23135	-0.046816	-0.15316	-0.008669	-0.046816	0.031938	-0.008669	0	0	0	-0.15684	-0.0091784	0.060805	-0.10773	0.06704	0.13856	-0.13321	-0.091701	0.13494
234	2.1871	-0.086081	0.047928	0.12607	0.11281	0.12909	0.22554	0.095522	0.15531	0.23071	-0.046816	-0.15316	-0.008669	-0.046816	0.031938	-0.008669	0	0	0	-0.15679	-0.009369	0.060752	-0.10797	0.067339	0.13821	-0.13303	-0.091492	0.13529
235	2.1965	-0.086318	0.048094	0.12569	0.11137	0.1319	0.22515	0.093849	0.15801	0.23005	-0.046816	-0.15316	-0.008669	-0.046816	0.031938	-0.008669	0	0	0	-0.15674	-0.0095602	0.060698	-0.10822	0.067634	0.13787	-0.13285	-0.091281	0.13564
236	2.2059	-0.086554	0.048258	0.12531	0.10992	0.13469	0.22476	0.092165	0.1607	0.22938	-0.046816	-0.15316	-0.008669	-0.046816	0.031938	-0.008669	0	0	0	-0.15669	-0.009752	0.060645	-0.10846	0.067926	0.13753	-0.13268	-0.091071	0.13598
237	2.2153	-0.086789	0.048418	0.12494	0.10845	0.13747	0.22435	0.090471	0.16337	0.22871	-0.046816	-0.15316	-0.008669	-0.046816	0.031938	-0.008669	0	0	0	-0.15663	-0.0099443	0.060591	-0.10871	0.068215	0.13718	-0.1325	-0.09086	0.13633
238	2.2247	-0.087023	0.048576	0.12456	0.10698	0.14023	0.22394	0.088768	0.16602	0.22802	-0.046816	-0.15316	-0.008669	-0.046816	0.031938	-0.008669	0	0	0	-0.15657	-0.010137	0.060537	-0.10897	0.068501	0.13684	-0.13232	-0.090649	0.13667
239	2.234	-0.087255	0.048731	0.12418	0.1055	0.14297	0.22352	0.087057	0.16865	0.22733	-0.046816	-0.15316	-0.008669	-0.046816	0.031938	-0.008669	0	0	0	-0.15651	-0.01033	0.060484	-0.10922	0.068783	0.1365	-0.13214	-0.090437	0.13701
240	2.2434	-0.087486	0.048883	0.12381	0.10401	0.1457	0.22309	0.085338	0.17126	0.22663	-0.046816	-0.15316	-0.008669	-0.046816	0.031938	-0.008669	0	0	0	-0.15644	-0.010524	0.06043	-0.10947	0.069062	0.13616	-0.13196	-0.090225	0.13734
241	2.2528	-0.087716	0.049033	0.12344	0.10252	0.14841	0.22266	0.083614	0.17385	0.22592	-0.046816	-0.15316	-0.008669	-0.046816	0.031938	-0.008669	0	0	0	-0.15638	-0.010717	0.060376	-0.10973	0.069338	0.13581	-0.13177	-0.090012	0.13768
242	2.2622	-0.087944	0.049181	0.12306	0.10102	0.15111	0.22222	0.081883	0.17641	0.2252	-0.046816	-0.15316	-0.008669	-0.046816	0.031938	-0.008669	0	0	0	-0.1563	-0.010911	0.060323	-0.10999	0.06961	0.13547	-0.13159	-0.089799	0.13801
243	2.2716	-0.088171	0.049327	0.12269	0.099513	0.15378	0.22177	0.080149	0.17896	0.22448	-0.046816	-0.15316	-0.008669	-0.046816	0.031938	-0.008669	0	0	0	-0.15623	-0.011105	0.06027	-0.11025	0.069879	0.13513	-0.13141	-0.089585	0.13834
244	2.281	-0.088396	0.049471	0.12233	0.098002	0.15643	0.22132	0.078411	0.18148	0.22375	-0.046816	-0.15316	-0.008669	-0.046816	0.031938	-0.008669	0	0	0	-0.15615	-0.011299	0.060217	-0.11051	0.070144	0.13479	-0.13123	-0.089371	0.13867
245	2.2904	-0.08862	0.049613	0.12196	0.096486	0.15905	0.22087	0.07667	0.18397	0.22302	-0.046816	-0.15316	-0.008669	-0.046816	0.031938	-0.008669	0	0	0	-0.15607	-0.011492	0.060164	-0.11077	0.070406	0.13444	-0.13105	-0.089156	0.139
246	2.2997	-0.088841	0.049753	0.12159	0.094968	0.16165	0.22041	0.074927	0.18644	0.22228	-0.046816	-0.15316	-0.008669	-0.046816	0.031938	-0.008669	0	0	0	-0.15599	-0.011686	0.060111	-0.11103	0.070665	0.1341	-0.13087	-0.08894	0.13932
247	2.3091	-0.089062	0.049892	0.12123	0.093446	0.16423	0.21994	0.073184	0.18888	0.22154	-0.046816	-0.15316	-0.008669	-0.046816	0.031938	-0.008669	0	0	0	-0.1559	-0.011879	0.060059	-0.1113	0.07092	0.13376	-0.13068	-0.088724	0.13964
248	2.3185	-0.08928	0.05003	0.12087	0.091923	0.16679	0.21948	0.071441	0.1913	0.2208	-0.046816	-0.15316	-0.008669	-0.046816	0.031938	-0.008669	0	0	0	-0.15581	-0.012072	0.060007	-0.11156	0.071172	0.13342	-0.1305	-0.088506	0.13996
249	2.3279	-0.089496	0.050167	0.1205	0.090399	0.16931	0.21901	0.069699	0.19368	0.22005	-0.046816	-0.15316	-0.008669	-0.046816	0.031938	-0.008669	0	0	0	-0.15573	-0.012265	0.059955	-0.11183	0.07142	0.13308	-0.13032	-0.088288	0.14027
250	2.3373	-0.089711	0.050302	0.12015	0.088873	0.17181	0.21853	0.067959	0.19603	0.21931	-0.046816	-0.15316	-0.008669	-0.046816	0.031938	-0.008669	0	0	0	-0.15563	-0.012457	0.059903	-0.1121	0.071664	0.13274	-0.13014	-0.088069	0.14059
251	2.3467	-0.089924	0.050437	0.11979	0.087348	0.17428	0.21806	0.066223	0.19835	0.21856	-0.046816	-0.15316	-0.008669	-0.046816	0.031938	-0.008669	0	0	0	-0.15554	-0.012648	0.059852	-0.11237	0.071905	0.13239	-0.12995	-0.08785	0.1409
